#	                Vertices: 8
#	                  Points: 0
#	                   Lines: 0
#	                   Faces: 6
#	               Materials: 1

o 1

# Vertex list

v -0.5 -0.5 0.5
v -0.5 -0.5 -0.5
v -0.5 0.5 -0.5
v -0.5 0.5 0.5
v 0.5 -0.5 0.5
v 0.5 -0.5 -0.5
v 0.5 0.5 -0.5
v 0.5 0.5 0.5

#Normal list
vn 1 0 0
vn -1 0 0
vn 0 1 0
vn 0 -1 0
vn 0 0 1
vn 0 0 -1

# Point/Line/Face list

f 4//2 3//2 2//2 1//2
f 2//4 6//4 5//4 1//4
f 3//6 7//6 6//6 2//6
f 8//3 7//3 3//3 4//3
f 5//5 8//5 4//5 1//5
f 6//1 7//1 8//1 5//1

# End of file