# This file uses centimeters as units for non-parametric coordinates.

mtllib MedievalMaterials.mtl
v -91.297935 43.133193 40.388321
v -91.297935 55.756310 40.388321
v 91.297935 43.133193 40.388321
v 91.297935 55.756310 40.388321
v 91.297935 43.133193 -40.388321
v 91.297935 55.756310 -40.388321
v -91.297935 43.133193 -40.388321
v -91.297935 55.756310 -40.388321
v -84.597931 55.756310 33.688320
v 84.597931 55.756310 33.688320
v 84.597931 55.756310 -33.688320
v -84.597931 55.756310 -33.688320
v -84.597931 59.556311 33.688320
v 84.597931 59.556311 33.688320
v 84.597931 59.556311 -33.688320
v -84.597931 59.556311 -33.688320
vt 0.901151 0.469440
vt 0.901151 0.529470
vt 0.032805 0.529470
vt 0.032805 0.469440
vt 0.474451 0.381904
vt 0.474451 0.451576
vt 0.028619 0.451576
vt 0.028619 0.381904
vt 0.032805 0.469440
vt 0.032805 0.529470
vt 0.901151 0.529470
vt 0.901151 0.469440
vt 0.028619 0.381904
vt 0.028619 0.451576
vt 0.474451 0.451576
vt 0.474451 0.381904
vt 0.952211 0.592937
vt 0.952211 0.953445
vt 0.046904 0.953445
vt 0.046904 0.592937
vt 0.569918 0.010535
vt 0.569918 0.254841
vt 0.017662 0.254841
vt 0.017662 0.010535
vt 0.988060 0.557087
vt 0.952211 0.592937
vt 0.046904 0.592937
vt 0.011055 0.557087
vt 0.988060 0.989294
vt 0.952211 0.953445
vt 0.952211 0.592937
vt 0.988060 0.557087
vt 0.011055 0.989294
vt 0.046904 0.953445
vt 0.952211 0.953445
vt 0.988060 0.989294
vt 0.011055 0.557087
vt 0.046904 0.592937
vt 0.046904 0.953445
vt 0.011055 0.989294
vt 0.906510 0.343070
vt 0.906510 0.362736
vt 0.030894 0.362736
vt 0.030894 0.343070
vt 0.477228 0.273945
vt 0.477228 0.299415
vt 0.025631 0.299415
vt 0.025631 0.273945
vt 0.030894 0.323404
vt 0.030894 0.343070
vt 0.906510 0.343070
vt 0.906510 0.323404
vt 0.025631 0.273945
vt 0.025631 0.299415
vt 0.477228 0.299415
vt 0.477228 0.273945
vn 0.000000 0.000000 1.000000
vn 0.000000 0.000000 1.000000
vn 0.000000 0.000000 1.000000
vn 0.000000 0.000000 1.000000
vn 1.000000 0.000000 0.000000
vn 1.000000 0.000000 0.000000
vn 1.000000 0.000000 0.000000
vn 1.000000 0.000000 0.000000
vn 0.000000 0.000000 -1.000000
vn 0.000000 0.000000 -1.000000
vn 0.000000 0.000000 -1.000000
vn 0.000000 0.000000 -1.000000
vn -1.000000 0.000000 0.000000
vn -1.000000 0.000000 0.000000
vn -1.000000 0.000000 0.000000
vn -1.000000 0.000000 0.000000
vn 0.000000 1.000000 0.000000
vn 0.000000 1.000000 0.000000
vn 0.000000 1.000000 0.000000
vn 0.000000 1.000000 0.000000
vn 0.000000 -1.000000 0.000000
vn 0.000000 -1.000000 0.000000
vn 0.000000 -1.000000 0.000000
vn 0.000000 -1.000000 0.000000
vn 0.000000 1.000000 0.000000
vn 0.000000 1.000000 0.000000
vn 0.000000 1.000000 0.000000
vn 0.000000 1.000000 0.000000
vn 0.000000 1.000000 0.000000
vn 0.000000 1.000000 0.000000
vn 0.000000 1.000000 0.000000
vn 0.000000 1.000000 0.000000
vn 0.000000 1.000000 0.000000
vn 0.000000 1.000000 0.000000
vn 0.000000 1.000000 0.000000
vn 0.000000 1.000000 0.000000
vn 0.000000 1.000000 0.000000
vn 0.000000 1.000000 0.000000
vn 0.000000 1.000000 0.000000
vn 0.000000 1.000000 0.000000
vn 0.000000 0.000000 1.000000
vn 0.000000 0.000000 1.000000
vn 0.000000 0.000000 1.000000
vn 0.000000 0.000000 1.000000
vn 1.000000 0.000000 0.000000
vn 1.000000 0.000000 0.000000
vn 1.000000 0.000000 0.000000
vn 1.000000 0.000000 0.000000
vn 0.000000 0.000000 -1.000000
vn 0.000000 0.000000 -1.000000
vn 0.000000 0.000000 -1.000000
vn 0.000000 0.000000 -1.000000
vn -1.000000 0.000000 0.000000
vn -1.000000 0.000000 0.000000
vn -1.000000 0.000000 0.000000
vn -1.000000 0.000000 0.000000
usemtl crypt_topSG
f 3/1/1 4/2/2 2/3/3 1/4/4
f 5/5/5 6/6/6 4/7/7 3/8/8
f 7/9/9 8/10/10 6/11/11 5/12/12
f 1/13/13 2/14/14 8/15/15 7/16/16
f 14/17/17 15/18/18 16/19/19 13/20/20
f 5/21/21 3/22/22 1/23/23 7/24/24
f 4/25/25 10/26/26 9/27/27 2/28/28
f 6/29/29 11/30/30 10/31/31 4/32/32
f 8/33/33 12/34/34 11/35/35 6/36/36
f 2/37/37 9/38/38 12/39/39 8/40/40
f 10/41/41 14/42/42 13/43/43 9/44/44
f 11/45/45 15/46/46 14/47/47 10/48/48
f 12/49/49 16/50/50 15/51/51 11/52/52
f 9/53/53 13/54/54 16/55/55 12/56/56
v -95.000000 0.000000 45.000000
v -95.000000 10.000000 45.000000
v 95.000000 0.000000 45.000000
v 95.000000 10.000000 45.000000
v 95.000000 0.000000 -45.000000
v 95.000000 10.000000 -45.000000
v -95.000000 0.000000 -45.000000
v -95.000000 10.000000 -45.000000
v -89.199997 10.000000 39.200001
v 89.199997 10.000000 39.200001
v 89.199997 10.000000 -39.200001
v -89.199997 10.000000 -39.200001
v -89.199997 43.799999 39.200001
v 89.199997 43.799999 39.200001
v 89.199997 43.799999 -39.200001
v -89.199997 43.799999 -39.200001
v -82.099998 43.799999 32.099998
v 82.099998 43.799999 32.099998
v 82.099998 43.799999 -32.099998
v -82.099998 43.799999 -32.099998
v -82.099998 6.100000 32.099998
v 82.099998 6.100000 32.099998
v 82.099998 6.100000 -32.099998
v -82.099998 6.100000 -32.099998
v -83.199997 16.000000 39.200001
v 83.199997 16.000000 39.200001
v -83.199997 37.799999 39.200001
v 83.199997 37.799999 39.200001
v 89.199997 16.000000 33.200001
v 89.199997 16.000000 -33.200001
v 89.199997 37.799999 33.200001
v 89.199997 37.799999 -33.200001
v 83.199997 16.000000 -39.200001
v -83.199997 16.000000 -39.200001
v 83.199997 37.799999 -39.200001
v -83.199997 37.799999 -39.200001
v -89.199997 16.000000 33.200001
v -89.199997 16.000000 -33.200001
v -89.199997 37.799999 33.200001
v -89.199997 37.799999 -33.200001
v -83.199997 16.000000 36.299999
v 83.199997 16.000000 36.299999
v -83.199997 37.799999 36.299999
v 83.199997 37.799999 36.299999
v 86.300003 16.000000 33.200001
v 86.300003 16.000000 -33.200001
v 86.300003 37.799999 33.200001
v 86.300003 37.799999 -33.200001
v 83.199997 16.000000 -36.299999
v -83.199997 16.000000 -36.299999
v 83.199997 37.799999 -36.299999
v -83.199997 37.799999 -36.299999
v -86.300003 16.000000 33.200001
v -86.300003 16.000000 -33.200001
v -86.300003 37.799999 33.200001
v -86.300003 37.799999 -33.200001
vt 0.783115 0.250091
vt 0.783115 0.287349
vt 0.075217 0.287349
vt 0.075217 0.250091
vt 0.920051 0.618872
vt 0.858597 0.618872
vt 0.858597 0.065781
vt 0.920051 0.065781
vt 0.777611 0.076374
vt 0.777611 0.113632
vt 0.069713 0.113632
vt 0.069713 0.076374
vt 0.981506 0.065782
vt 0.920051 0.065782
vt 0.920051 0.618872
vt 0.981506 0.618872
vt 0.984953 0.697888
vt 0.984953 0.962528
vt 0.720313 0.962528
vt 0.720313 0.697888
vt 0.707898 0.664680
vt 0.686289 0.686289
vt 0.021610 0.686289
vt 0.000000 0.664680
vt 0.707898 1.000000
vt 0.686289 0.978390
vt 0.686289 0.686289
vt 0.707898 0.664680
vt 0.000000 1.000000
vt 0.021610 0.978390
vt 0.686289 0.978390
vt 0.707898 1.000000
vt 0.000000 0.664680
vt 0.021610 0.686289
vt 0.021610 0.978390
vt 0.000000 1.000000
vt 0.799475 0.223634
vt 0.797938 0.320779
vt 0.057449 0.322704
vt 0.059450 0.223273
vt 0.536946 0.763501
vt 0.538808 0.899701
vt 0.114046 0.899627
vt 0.113375 0.758953
vt 0.799490 0.045453
vt 0.797989 0.142598
vt 0.057500 0.144795
vt 0.059465 0.045363
vt 0.433537 0.466275
vt 0.435146 0.573665
vt 0.100227 0.574045
vt 0.099553 0.463126
vt 0.664679 0.372579
vt 0.638226 0.399032
vt 0.026453 0.399032
vt 0.000000 0.372579
vt 0.664679 0.664680
vt 0.638226 0.638227
vt 0.638226 0.399032
vt 0.664679 0.372579
vt 0.000000 0.664680
vt 0.026453 0.638227
vt 0.638226 0.638227
vt 0.664679 0.664680
vt 0.000000 0.372579
vt 0.026453 0.399032
vt 0.026453 0.638227
vt 0.000000 0.664680
vt 0.984953 0.697888
vt 0.984953 0.962528
vt 0.720313 0.962528
vt 0.720313 0.697888
vt 0.984953 0.697888
vt 0.984953 0.962528
vt 0.720313 0.962528
vt 0.720313 0.697888
vt 0.984953 0.697888
vt 0.984953 0.962528
vt 0.720313 0.962528
vt 0.720313 0.697888
vt 0.984953 0.697888
vt 0.984953 0.962528
vt 0.720313 0.962528
vt 0.720313 0.697888
vt 0.840765 0.185997
vt 0.812252 0.210564
vt 0.044504 0.211362
vt 0.012896 0.182301
vt 0.838894 0.360175
vt 0.812564 0.332672
vt 0.812252 0.210564
vt 0.840765 0.185997
vt 0.019684 0.360197
vt 0.044178 0.336496
vt 0.812564 0.332672
vt 0.838894 0.360175
vt 0.012896 0.182301
vt 0.044504 0.211362
vt 0.044178 0.336496
vt 0.019684 0.360197
vt 0.594632 0.708382
vt 0.554409 0.744367
vt 0.091503 0.741897
vt 0.051357 0.700178
vt 0.595971 0.951135
vt 0.559993 0.916394
vt 0.554409 0.744367
vt 0.594632 0.708382
vt 0.050100 0.963714
vt 0.095747 0.919458
vt 0.559993 0.916394
vt 0.595971 0.951135
vt 0.051357 0.700178
vt 0.091503 0.741897
vt 0.095747 0.919458
vt 0.050100 0.963714
vt 0.840766 0.007801
vt 0.812262 0.032378
vt 0.044515 0.033457
vt 0.012896 0.004408
vt 0.838959 0.181979
vt 0.812619 0.154486
vt 0.812262 0.032378
vt 0.840766 0.007801
vt 0.019749 0.182301
vt 0.044235 0.158592
vt 0.812619 0.154486
vt 0.838959 0.181979
vt 0.012896 0.004408
vt 0.044515 0.033457
vt 0.044235 0.158592
vt 0.019749 0.182301
vt 0.478965 0.422755
vt 0.447287 0.451170
vt 0.082290 0.449700
vt 0.050592 0.416847
vt 0.480271 0.614160
vt 0.451867 0.586805
vt 0.447287 0.451170
vt 0.478965 0.422755
vt 0.049874 0.624642
vt 0.085820 0.589700
vt 0.451867 0.586805
vt 0.480271 0.614160
vt 0.050592 0.416847
vt 0.082290 0.449700
vt 0.085820 0.589700
vt 0.049874 0.624642
vt 0.812252 0.210564
vt 0.799475 0.223634
vt 0.059450 0.223273
vt 0.044504 0.211362
vt 0.812564 0.332672
vt 0.797938 0.320779
vt 0.799475 0.223634
vt 0.812252 0.210564
vt 0.044178 0.336496
vt 0.057449 0.322704
vt 0.797938 0.320779
vt 0.812564 0.332672
vt 0.044504 0.211362
vt 0.059450 0.223273
vt 0.057449 0.322704
vt 0.044178 0.336496
vt 0.554409 0.744367
vt 0.536946 0.763501
vt 0.113375 0.758953
vt 0.091503 0.741897
vt 0.559993 0.916394
vt 0.538808 0.899701
vt 0.536946 0.763501
vt 0.554409 0.744367
vt 0.095747 0.919458
vt 0.114046 0.899627
vt 0.538808 0.899701
vt 0.559993 0.916394
vt 0.091503 0.741897
vt 0.113375 0.758953
vt 0.114046 0.899627
vt 0.095747 0.919458
vt 0.812262 0.032378
vt 0.799490 0.045453
vt 0.059465 0.045363
vt 0.044515 0.033457
vt 0.812619 0.154486
vt 0.797989 0.142598
vt 0.799490 0.045453
vt 0.812262 0.032378
vt 0.044235 0.158592
vt 0.057500 0.144795
vt 0.797989 0.142598
vt 0.812619 0.154486
vt 0.044515 0.033457
vt 0.059465 0.045363
vt 0.057500 0.144795
vt 0.044235 0.158592
vt 0.447287 0.451170
vt 0.433537 0.466275
vt 0.099553 0.463126
vt 0.082290 0.449700
vt 0.451867 0.586805
vt 0.435146 0.573665
vt 0.433537 0.466275
vt 0.447287 0.451170
vt 0.085820 0.589700
vt 0.100227 0.574045
vt 0.435146 0.573665
vt 0.451867 0.586805
vt 0.082290 0.449700
vt 0.099553 0.463126
vt 0.100227 0.574045
vt 0.085820 0.589700
vn 0.000000 0.000000 1.000000
vn 0.000000 0.000000 1.000000
vn 0.000000 0.000000 1.000000
vn 0.000000 0.000000 1.000000
vn 1.000000 0.000000 0.000000
vn 1.000000 0.000000 0.000000
vn 1.000000 0.000000 0.000000
vn 1.000000 0.000000 0.000000
vn 0.000000 0.000000 -1.000000
vn 0.000000 0.000000 -1.000000
vn 0.000000 0.000000 -1.000000
vn 0.000000 0.000000 -1.000000
vn -1.000000 0.000000 0.000000
vn -1.000000 0.000000 0.000000
vn -1.000000 0.000000 0.000000
vn -1.000000 0.000000 0.000000
vn 0.000000 1.000000 0.000000
vn 0.000000 1.000000 0.000000
vn 0.000000 1.000000 0.000000
vn 0.000000 1.000000 0.000000
vn 0.000000 1.000000 0.000000
vn 0.000000 1.000000 0.000000
vn 0.000000 1.000000 0.000000
vn 0.000000 1.000000 0.000000
vn 0.000000 1.000000 0.000000
vn 0.000000 1.000000 0.000000
vn 0.000000 1.000000 0.000000
vn 0.000000 1.000000 0.000000
vn 0.000000 1.000000 0.000000
vn 0.000000 1.000000 0.000000
vn 0.000000 1.000000 0.000000
vn 0.000000 1.000000 0.000000
vn 0.000000 1.000000 0.000000
vn 0.000000 1.000000 0.000000
vn 0.000000 1.000000 0.000000
vn 0.000000 1.000000 0.000000
vn 0.000000 0.000000 1.000000
vn 0.000000 0.000000 1.000000
vn 0.000000 0.000000 1.000000
vn 0.000000 0.000000 1.000000
vn 1.000000 0.000000 0.000000
vn 1.000000 0.000000 0.000000
vn 1.000000 0.000000 0.000000
vn 1.000000 0.000000 0.000000
vn 0.000000 0.000000 -1.000000
vn 0.000000 0.000000 -1.000000
vn 0.000000 0.000000 -1.000000
vn 0.000000 0.000000 -1.000000
vn -1.000000 0.000000 0.000000
vn -1.000000 0.000000 0.000000
vn -1.000000 0.000000 0.000000
vn -1.000000 0.000000 0.000000
vn 0.000000 1.000000 0.000000
vn 0.000000 1.000000 0.000000
vn 0.000000 1.000000 0.000000
vn 0.000000 1.000000 0.000000
vn 0.000000 1.000000 0.000000
vn 0.000000 1.000000 0.000000
vn 0.000000 1.000000 0.000000
vn 0.000000 1.000000 0.000000
vn 0.000000 1.000000 0.000000
vn 0.000000 1.000000 0.000000
vn 0.000000 1.000000 0.000000
vn 0.000000 1.000000 0.000000
vn 0.000000 1.000000 0.000000
vn 0.000000 1.000000 0.000000
vn 0.000000 1.000000 0.000000
vn 0.000000 1.000000 0.000000
vn 0.000000 0.000000 -1.000000
vn 0.000000 0.000000 -1.000000
vn 0.000000 0.000000 -1.000000
vn 0.000000 0.000000 -1.000000
vn -1.000000 0.000000 0.000000
vn -1.000000 0.000000 0.000000
vn -1.000000 0.000000 0.000000
vn -1.000000 0.000000 0.000000
vn 0.000000 0.000000 1.000000
vn 0.000000 0.000000 1.000000
vn 0.000000 0.000000 1.000000
vn 0.000000 0.000000 1.000000
vn 1.000000 0.000000 0.000000
vn 1.000000 0.000000 0.000000
vn 1.000000 0.000000 0.000000
vn 1.000000 0.000000 0.000000
vn 0.000000 0.000000 1.000000
vn 0.000000 0.000000 1.000000
vn 0.000000 0.000000 1.000000
vn 0.000000 0.000000 1.000000
vn 0.000000 0.000000 1.000000
vn 0.000000 0.000000 1.000000
vn 0.000000 0.000000 1.000000
vn 0.000000 0.000000 1.000000
vn 0.000000 0.000000 1.000000
vn 0.000000 0.000000 1.000000
vn 0.000000 0.000000 1.000000
vn 0.000000 0.000000 1.000000
vn 0.000000 0.000000 1.000000
vn 0.000000 0.000000 1.000000
vn 0.000000 0.000000 1.000000
vn 0.000000 0.000000 1.000000
vn 1.000000 0.000000 0.000000
vn 1.000000 0.000000 0.000000
vn 1.000000 0.000000 0.000000
vn 1.000000 0.000000 0.000000
vn 1.000000 0.000000 0.000000
vn 1.000000 0.000000 0.000000
vn 1.000000 0.000000 0.000000
vn 1.000000 0.000000 0.000000
vn 1.000000 0.000000 0.000000
vn 1.000000 0.000000 0.000000
vn 1.000000 0.000000 0.000000
vn 1.000000 0.000000 0.000000
vn 1.000000 0.000000 0.000000
vn 1.000000 0.000000 0.000000
vn 1.000000 0.000000 0.000000
vn 1.000000 0.000000 0.000000
vn 0.000000 0.000000 -1.000000
vn 0.000000 0.000000 -1.000000
vn 0.000000 0.000000 -1.000000
vn 0.000000 0.000000 -1.000000
vn 0.000000 0.000000 -1.000000
vn 0.000000 0.000000 -1.000000
vn 0.000000 0.000000 -1.000000
vn 0.000000 0.000000 -1.000000
vn 0.000000 0.000000 -1.000000
vn 0.000000 0.000000 -1.000000
vn 0.000000 0.000000 -1.000000
vn 0.000000 0.000000 -1.000000
vn 0.000000 0.000000 -1.000000
vn 0.000000 0.000000 -1.000000
vn 0.000000 0.000000 -1.000000
vn 0.000000 0.000000 -1.000000
vn -1.000000 0.000000 0.000000
vn -1.000000 0.000000 0.000000
vn -1.000000 0.000000 0.000000
vn -1.000000 0.000000 0.000000
vn -1.000000 0.000000 0.000000
vn -1.000000 0.000000 0.000000
vn -1.000000 0.000000 0.000000
vn -1.000000 0.000000 0.000000
vn -1.000000 0.000000 0.000000
vn -1.000000 0.000000 0.000000
vn -1.000000 0.000000 0.000000
vn -1.000000 0.000000 0.000000
vn -1.000000 0.000000 0.000000
vn -1.000000 0.000000 0.000000
vn -1.000000 0.000000 0.000000
vn -1.000000 0.000000 0.000000
vn 0.000000 1.000000 0.000000
vn 0.000000 1.000000 0.000000
vn 0.000000 1.000000 0.000000
vn 0.000000 1.000000 0.000000
vn -1.000000 0.000000 0.000000
vn -1.000000 0.000000 0.000000
vn -1.000000 0.000000 0.000000
vn -1.000000 0.000000 0.000000
vn 0.000000 -1.000000 0.000000
vn 0.000000 -1.000000 0.000000
vn 0.000000 -1.000000 0.000000
vn 0.000000 -1.000000 0.000000
vn 1.000000 0.000000 0.000000
vn 1.000000 0.000000 0.000000
vn 1.000000 0.000000 0.000000
vn 1.000000 0.000000 0.000000
vn 0.000000 1.000000 0.000000
vn 0.000000 1.000000 0.000000
vn 0.000000 1.000000 0.000000
vn 0.000000 1.000000 0.000000
vn 0.000000 0.000000 1.000000
vn 0.000000 0.000000 1.000000
vn 0.000000 0.000000 1.000000
vn 0.000000 0.000000 1.000000
vn 0.000000 -1.000000 0.000000
vn 0.000000 -1.000000 0.000000
vn 0.000000 -1.000000 0.000000
vn 0.000000 -1.000000 0.000000
vn 0.000000 0.000000 -1.000000
vn 0.000000 0.000000 -1.000000
vn 0.000000 0.000000 -1.000000
vn 0.000000 0.000000 -1.000000
vn 0.000000 1.000000 0.000000
vn 0.000000 1.000000 0.000000
vn 0.000000 1.000000 0.000000
vn 0.000000 1.000000 0.000000
vn 1.000000 0.000000 0.000000
vn 1.000000 0.000000 0.000000
vn 1.000000 0.000000 0.000000
vn 1.000000 0.000000 0.000000
vn 0.000000 -1.000000 0.000000
vn 0.000000 -1.000000 0.000000
vn 0.000000 -1.000000 0.000000
vn 0.000000 -1.000000 0.000000
vn -1.000000 0.000000 0.000000
vn -1.000000 0.000000 0.000000
vn -1.000000 0.000000 0.000000
vn -1.000000 0.000000 0.000000
vn 0.000000 1.000000 0.000000
vn 0.000000 1.000000 0.000000
vn 0.000000 1.000000 0.000000
vn 0.000000 1.000000 0.000000
vn 0.000000 0.000000 -1.000000
vn 0.000000 0.000000 -1.000000
vn 0.000000 0.000000 -1.000000
vn 0.000000 0.000000 -1.000000
vn 0.000000 -1.000000 0.000000
vn 0.000000 -1.000000 0.000000
vn 0.000000 -1.000000 0.000000
vn 0.000000 -1.000000 0.000000
vn 0.000000 0.000000 1.000000
vn 0.000000 0.000000 1.000000
vn 0.000000 0.000000 1.000000
vn 0.000000 0.000000 1.000000
f 19/57/57 20/58/58 18/59/59 17/60/60
f 21/61/61 22/62/62 20/63/63 19/64/64
f 23/65/65 24/66/66 22/67/67 21/68/68
f 17/69/69 18/70/70 24/71/71 23/72/72
f 38/73/73 39/74/74 40/75/75 37/76/76
f 20/77/77 26/78/78 25/79/79 18/80/80
f 22/81/81 27/82/82 26/83/83 20/84/84
f 24/85/85 28/86/86 27/87/87 22/88/88
f 18/89/89 25/90/90 28/91/91 24/92/92
f 58/93/93 60/94/94 59/95/95 57/96/96
f 62/97/97 64/98/98 63/99/99 61/100/100
f 66/101/101 68/102/102 67/103/103 65/104/104
f 69/105/105 71/106/106 72/107/107 70/108/108
f 30/109/109 34/110/110 33/111/111 29/112/112
f 31/113/113 35/114/114 34/115/115 30/116/116
f 32/117/117 36/118/118 35/119/119 31/120/120
f 29/121/121 33/122/122 36/123/123 32/124/124
f 34/125/125 38/126/126 37/127/127 33/128/128
f 35/129/129 39/130/130 38/131/131 34/132/132
f 36/133/133 40/134/134 39/135/135 35/136/136
f 33/137/137 37/138/138 40/139/139 36/140/140
f 26/141/141 42/142/142 41/143/143 25/144/144
f 30/145/145 44/146/146 42/147/147 26/148/148
f 29/149/149 43/150/150 44/151/151 30/152/152
f 25/153/153 41/154/154 43/155/155 29/156/156
f 27/157/157 46/158/158 45/159/159 26/160/160
f 31/161/161 48/162/162 46/163/163 27/164/164
f 30/165/165 47/166/166 48/167/167 31/168/168
f 26/169/169 45/170/170 47/171/171 30/172/172
f 28/173/173 50/174/174 49/175/175 27/176/176
f 32/177/177 52/178/178 50/179/179 28/180/180
f 31/181/181 51/182/182 52/183/183 32/184/184
f 27/185/185 49/186/186 51/187/187 31/188/188
f 25/189/189 53/190/190 54/191/191 28/192/192
f 29/193/193 55/194/194 53/195/195 25/196/196
f 32/197/197 56/198/198 55/199/199 29/200/200
f 28/201/201 54/202/202 56/203/203 32/204/204
f 42/205/205 58/206/206 57/207/207 41/208/208
f 44/209/209 60/210/210 58/211/211 42/212/212
f 43/213/213 59/214/214 60/215/215 44/216/216
f 41/217/217 57/218/218 59/219/219 43/220/220
f 46/221/221 62/222/222 61/223/223 45/224/224
f 48/225/225 64/226/226 62/227/227 46/228/228
f 47/229/229 63/230/230 64/231/231 48/232/232
f 45/233/233 61/234/234 63/235/235 47/236/236
f 50/237/237 66/238/238 65/239/239 49/240/240
f 52/241/241 68/242/242 66/243/243 50/244/244
f 51/245/245 67/246/246 68/247/247 52/248/248
f 49/249/249 65/250/250 67/251/251 51/252/252
f 53/253/253 69/254/254 70/255/255 54/256/256
f 55/257/257 71/258/258 69/259/259 53/260/260
f 56/261/261 72/262/262 71/263/263 55/264/264
f 54/265/265 70/266/266 72/267/267 56/268/268
