# This file uses centimeters as units for non-parametric coordinates.

mtllib MedievalMaterials.mtl
v -50.351112 0.000000 5.256701
v -50.351112 150.000000 5.256701
v 50.351112 0.000000 5.256701
v 50.351112 150.000000 5.256701
v 50.351112 0.000000 -5.256701
v 50.351112 150.000000 -5.256701
v -50.351112 0.000000 -5.256701
v -50.351112 150.000000 -5.256701
vt 0.500000 0.166667
vt 0.500000 1.000000
vt 0.000000 1.000000
vt 0.000000 0.166667
vt 0.070089 0.000000
vt 0.070089 1.000000
vt 0.000000 1.000000
vt 0.000000 0.000000
vt 0.500000 0.166667
vt 0.500000 1.000000
vt 1.000000 1.000000
vt 1.000000 0.166667
vt 0.000000 0.164268
vt 0.000000 1.000000
vt 0.058576 1.000000
vt 0.058576 0.164268
vt 1.000000 0.883185
vt 1.000000 1.000000
vt 0.000000 1.000000
vt 0.000000 0.883185
vt 1.000000 0.883185
vt 1.000000 0.766369
vt 0.000000 0.766369
vt 0.000000 0.883185
vn 0.000000 0.000000 1.000000
vn 0.000000 0.000000 1.000000
vn 0.000000 0.000000 1.000000
vn 0.000000 0.000000 1.000000
vn 1.000000 0.000000 0.000000
vn 1.000000 0.000000 0.000000
vn 1.000000 0.000000 0.000000
vn 1.000000 0.000000 0.000000
vn 0.000000 0.000000 -1.000000
vn 0.000000 0.000000 -1.000000
vn 0.000000 0.000000 -1.000000
vn 0.000000 0.000000 -1.000000
vn -1.000000 0.000000 0.000000
vn -1.000000 0.000000 0.000000
vn -1.000000 0.000000 0.000000
vn -1.000000 0.000000 0.000000
vn 0.000000 1.000000 0.000000
vn 0.000000 1.000000 0.000000
vn 0.000000 1.000000 0.000000
vn 0.000000 1.000000 0.000000
vn 0.000000 -1.000000 0.000000
vn 0.000000 -1.000000 0.000000
vn 0.000000 -1.000000 0.000000
vn 0.000000 -1.000000 0.000000
usemtl woodSG
f 3/1/1 4/2/2 2/3/3 1/4/4
f 5/5/5 6/6/6 4/7/7 3/8/8
f 7/9/9 8/10/10 6/11/11 5/12/12
f 1/13/13 2/14/14 8/15/15 7/16/16
f 4/17/17 6/18/18 8/19/19 2/20/20
f 5/21/21 3/22/22 1/23/23 7/24/24
v 50.000002 -53.670197 -15.000009
v -49.999998 -53.670197 -15.000004
v -49.999997 -53.670198 14.999992
v 50.000003 -53.670198 14.999988
v 50.000002 1.443825 -15.000006
v -49.999998 1.443825 -15.000002
v -49.999997 1.443823 14.999988
v 50.000003 1.443823 14.999984
v 50.000002 -0.000000 -15.000006
v -49.999998 -0.000000 -15.000002
v -49.999997 -0.000001 14.999988
v 50.000003 -0.000001 14.999984
vt 1.000000 0.985562
vt 1.000000 1.000000
vt 0.000000 1.000000
vt 0.000000 0.985562
vt 0.000000 0.700000
vt 1.000000 0.700000
vt 1.000000 1.000000
vt 0.000000 1.000000
vt 1.000000 0.985562
vt 1.000000 1.000000
vt 0.000000 1.000000
vt 0.000000 0.985562
vn -0.000000 0.000000 -1.000000
vn -0.000000 0.000000 -1.000000
vn -0.000000 0.000000 -1.000000
vn -0.000000 0.000000 -1.000000
vn 0.000000 1.000000 0.000000
vn 0.000000 1.000000 0.000000
vn 0.000000 1.000000 0.000000
vn 0.000000 1.000000 0.000000
vn 0.000000 0.000000 1.000000
vn 0.000000 0.000000 1.000000
vn 0.000000 0.000000 1.000000
vn 0.000000 0.000000 1.000000
usemtl wallSG
f 18/25/25 14/26/26 13/27/27 17/28/28
f 15/29/29 16/30/30 13/31/31 14/32/32
f 20/33/33 16/34/34 15/35/35 19/36/36
v 50.000002 144.885986 -15.000000
v -49.999998 144.885986 -14.999996
v -49.999997 144.885985 15.000000
v 50.000003 144.885985 14.999996
v 50.000002 200.000008 -14.999998
v -49.999998 200.000008 -14.999993
v -49.999997 200.000006 14.999997
v 50.000003 200.000006 14.999993
vt 0.000000 0.700000
vt 1.000000 0.700000
vt 1.000000 1.000000
vt 0.000000 1.000000
vt 0.000000 0.700000
vt 1.000000 0.700000
vt 1.000000 1.000000
vt 0.000000 1.000000
vt 1.000000 0.448860
vt 1.000000 1.000000
vt 0.000000 1.000000
vt 0.000000 0.448860
vt 1.000000 0.448860
vt 1.000000 1.000000
vt 0.000000 1.000000
vt 0.000000 0.448860
vt 0.301464 0.447805
vt 0.601746 0.447805
vt 0.601746 0.999463
vt 0.301464 0.999463
vt 0.000536 0.999463
vt 0.300818 0.999463
vt 0.300818 0.447805
vt 0.000536 0.447805
vn -0.000000 1.000000 0.000000
vn -0.000000 1.000000 0.000000
vn -0.000000 1.000000 0.000000
vn -0.000000 1.000000 0.000000
vn 0.000000 1.000000 0.000000
vn 0.000000 1.000000 0.000000
vn 0.000000 1.000000 0.000000
vn 0.000000 1.000000 0.000000
vn -0.000000 0.000000 -1.000000
vn -0.000000 0.000000 -1.000000
vn -0.000000 0.000000 -1.000000
vn -0.000000 0.000000 -1.000000
vn 0.000000 0.000000 1.000000
vn 0.000000 0.000000 1.000000
vn 0.000000 0.000000 1.000000
vn 0.000000 0.000000 1.000000
vn 1.000000 0.000000 -0.000000
vn 1.000000 0.000000 -0.000000
vn 1.000000 0.000000 -0.000000
vn 1.000000 0.000000 -0.000000
vn -1.000000 -0.000000 0.000000
vn -1.000000 -0.000000 0.000000
vn -1.000000 -0.000000 0.000000
vn -1.000000 -0.000000 0.000000
f 23/37/37 24/38/38 21/39/39 22/40/40
f 27/41/41 28/42/42 25/43/43 26/44/44
f 22/45/45 26/46/46 25/47/47 21/48/48
f 24/49/49 28/50/50 27/51/51 23/52/52
f 24/53/53 21/54/54 25/55/55 28/56/56
f 27/57/57 26/58/58 22/59/59 23/60/60
