# This file uses centimeters as units for non-parametric coordinates.

mtllib MedievalMaterials.mtl
v -50.000000 200.000000 25.000000
v 25.000000 200.000000 25.000000
v 25.000000 200.000000 -25.000000
v -50.000000 200.000000 -25.000000
v -50.000000 24.965065 24.987131
v 25.000000 24.965065 25.000000
v 25.000000 24.965065 -25.000000
v -50.000000 24.965065 -25.001627
v -50.000000 0.000000 37.099998
v 37.099998 0.000000 37.099998
v 37.099998 0.000000 -37.099998
v -50.000000 0.000000 -37.099998
v -50.000000 24.965065 37.099998
v 37.099998 24.965065 37.099998
v 37.099998 24.965065 -37.099998
v -50.000000 24.965065 -37.099998
v -50.000000 99.999950 25.000000
v 25.000000 99.999950 25.000000
v 25.000000 99.999950 -25.000000
v -50.000000 99.999950 -25.000000
v -50.000000 0.000000 -25.001627
v -50.000000 0.000000 24.987131
vt 0.750625 0.747230
vt 0.750625 0.999573
vt 0.000625 0.999573
vt 0.000625 0.747230
vt 0.750625 0.747231
vt 0.750625 0.999573
vt 0.000625 0.999573
vt 0.000625 0.747231
vt 0.000625 0.747230
vt 0.000625 0.999573
vt 0.750625 0.999573
vt 0.750625 0.747230
vt 0.500000 0.000000
vt 0.500000 1.000000
vt 0.000000 1.000000
vt 0.000000 0.000000
vt 0.751953 0.498698
vt 0.751953 0.998698
vt 0.001953 0.998698
vt 0.001953 0.498698
vt 0.750000 0.000000
vt 0.750000 1.000000
vt 0.000000 1.000000
vt 0.000000 0.000000
vt 0.749651 0.250000
vt 0.749651 1.000000
vt 0.000000 1.000000
vt 0.000000 0.250000
vt 0.500000 0.249651
vt 0.500000 1.000000
vt 0.000000 1.000000
vt 0.000000 0.249651
vt 0.749728 0.249924
vt 0.749728 1.000000
vt 0.000000 1.000000
vt 0.000000 0.249924
vt 0.877409 0.992528
vt 0.877409 0.757989
vt 0.991205 0.757989
vt 0.991205 0.992528
vt 0.000000 1.000000
vt 0.000000 0.249651
vt 0.500000 0.249651
vt 0.500000 1.000000
vt 0.000625 0.895271
vt 0.000625 0.999573
vt 0.750625 0.999573
vt 0.646434 0.895382
vt 0.750000 0.000000
vt 0.750000 1.000000
vt 0.000000 1.000000
vt 0.000000 0.000000
vt 0.122929 0.877268
vt 0.000625 0.999573
vt 0.750625 0.999573
vt 0.628320 0.877268
vt 0.500000 0.000000
vt 0.500000 1.000000
vt 0.000000 1.000000
vt 0.000000 0.000000
vt 0.646434 0.895382
vt 0.750625 0.999573
vt 0.000625 0.999573
vt 0.000625 0.895396
vt 0.407780 0.992528
vt 0.294120 0.992528
vt 0.294120 0.757989
vt 0.407780 0.757989
vt 0.877409 0.992528
vt 0.407780 0.992528
vt 0.407780 0.757989
vt 0.877409 0.757989
vn 0.000000 0.000000 1.000000
vn 0.000000 0.000000 1.000000
vn 0.000000 0.000000 1.000000
vn 0.000000 0.000000 1.000000
vn 1.000000 0.000000 0.000000
vn 1.000000 0.000000 0.000000
vn 1.000000 0.000000 0.000000
vn 1.000000 0.000000 0.000000
vn 0.000000 0.000000 -1.000000
vn 0.000000 0.000000 -1.000000
vn 0.000000 0.000000 -1.000000
vn 0.000000 0.000000 -1.000000
vn -1.000000 0.000000 0.000000
vn -1.000000 0.000000 0.000000
vn -1.000000 0.000000 0.000000
vn -1.000000 0.000000 0.000000
vn 0.000000 1.000000 0.000000
vn 0.000000 1.000000 0.000000
vn 0.000000 1.000000 0.000000
vn 0.000000 1.000000 0.000000
vn 0.000005 0.000005 -1.000000
vn 0.000000 0.000000 -1.000000
vn 0.000000 0.000000 -1.000000
vn 0.000005 0.000005 -1.000000
vn -0.000086 -0.000086 1.000000
vn -0.000043 -0.000043 1.000000
vn -0.000043 -0.000043 1.000000
vn -0.000086 -0.000086 1.000000
vn 1.000000 0.000000 0.000000
vn 1.000000 0.000000 0.000000
vn 1.000000 0.000000 0.000000
vn 1.000000 0.000000 0.000000
vn 0.000011 0.000011 -1.000000
vn 0.000005 0.000005 -1.000000
vn 0.000005 0.000005 -1.000000
vn 0.000011 0.000011 -1.000000
vn -1.000000 0.000000 0.000000
vn -1.000000 0.000000 0.000000
vn -1.000000 0.000000 0.000000
vn -1.000000 0.000000 0.000000
vn -1.000000 0.000000 0.000000
vn -1.000000 0.000000 0.000000
vn -1.000000 0.000000 0.000000
vn -1.000000 0.000000 0.000000
vn 0.000000 1.000000 0.000000
vn 0.000000 1.000000 0.000000
vn 0.000000 1.000000 0.000000
vn 0.000000 1.000000 0.000000
vn -0.000043 -0.000043 1.000000
vn 0.000000 0.000000 1.000000
vn 0.000000 0.000000 1.000000
vn -0.000043 -0.000043 1.000000
vn 0.000000 1.000000 0.000000
vn 0.000000 1.000000 0.000000
vn 0.000000 1.000000 0.000000
vn 0.000000 1.000000 0.000000
vn 1.000000 0.000000 0.000000
vn 1.000000 0.000000 0.000000
vn 1.000000 0.000000 0.000000
vn 1.000000 0.000000 0.000000
vn 0.000000 1.000000 0.000000
vn 0.000000 1.000000 0.000000
vn 0.000000 1.000000 0.000000
vn 0.000000 1.000000 0.000000
vn -1.000000 0.000000 0.000000
vn -1.000000 0.000000 0.000000
vn -1.000000 0.000000 0.000000
vn -1.000000 0.000000 0.000000
vn -1.000000 0.000000 0.000000
vn -1.000000 0.000000 0.000000
vn -1.000000 0.000000 0.000000
vn -1.000000 0.000000 0.000000
usemtl wallSG1
f 10/1/1 14/2/2 13/3/3 9/4/4
f 11/5/5 15/6/6 14/7/7 10/8/8
f 12/9/9 16/10/10 15/11/11 11/12/12
usemtl wallSG
f 17/13/13 1/14/14 4/15/15 20/16/16
f 2/17/17 3/18/18 4/19/19 1/20/20
f 20/21/21 4/22/22 3/23/23 19/24/24
f 6/25/25 18/26/26 17/27/27 5/28/28
f 7/29/29 19/30/30 18/31/31 6/32/32
f 8/33/33 20/34/34 19/35/35 7/36/36
usemtl wallSG1
f 5/37/37 22/38/38 9/39/39 13/40/40
usemtl wallSG
f 20/41/41 8/42/42 5/43/43 17/44/44
usemtl wallSG1
f 5/45/45 13/46/46 14/47/47 6/48/48
usemtl wallSG
f 18/49/49 2/50/50 1/51/51 17/52/52
usemtl wallSG1
f 6/53/53 14/54/54 15/55/55 7/56/56
usemtl wallSG
f 19/57/57 3/58/58 2/59/59 18/60/60
usemtl wallSG1
f 7/61/61 15/62/62 16/63/63 8/64/64
f 8/65/65 16/66/66 12/67/67 21/68/68
f 5/69/69 8/70/70 21/71/71 22/72/72
