# This file uses centimeters as units for non-parametric coordinates.

mtllib MedievalMaterials.mtl
v -50.000000 0.000000 0.000007
v 50.000000 0.000000 0.000002
v -50.000000 100.000000 0.000002
v 50.000000 100.000000 -0.000002
v -50.000000 200.000000 -0.000002
v 50.000000 200.000000 -0.000007
v -50.000000 24.932487 0.000005
v 50.000000 24.932487 0.000001
v -49.999999 0.000001 12.289576
v 50.000001 0.000001 12.289572
v -49.999999 24.932488 12.289575
v 50.000001 24.932488 12.289571
vt 1.000000 0.750675
vt 1.000000 1.000000
vt 0.000000 1.000000
vt 0.000000 0.750675
vt 1.000000 0.000000
vt 1.000000 1.000000
vt 0.000000 1.000000
vt 0.000000 0.000000
vt 1.000000 0.249325
vt 1.000000 1.000000
vt 0.000000 1.000000
vt 0.000000 0.249325
vt 0.000000 0.877104
vt 0.000000 1.000000
vt 1.000000 1.000000
vt 1.000000 0.877104
vn 0.000000 0.000000 1.000000
vn 0.000000 0.000000 1.000000
vn 0.000000 0.000000 1.000000
vn 0.000000 0.000000 1.000000
vn 0.000000 0.000000 1.000000
vn 0.000000 0.000000 1.000000
vn 0.000000 0.000000 1.000000
vn 0.000000 0.000000 1.000000
vn 0.000000 0.000000 1.000000
vn 0.000000 0.000000 1.000000
vn 0.000000 0.000000 1.000000
vn 0.000000 0.000000 1.000000
vn -0.000000 1.000000 -0.000000
vn -0.000000 1.000000 -0.000000
vn -0.000000 1.000000 -0.000000
vn -0.000000 1.000000 -0.000000
usemtl wallSG1
f 10/1/1 12/2/2 11/3/3 9/4/4
usemtl wallSG
f 4/5/5 6/6/6 5/7/7 3/8/8
f 8/9/9 4/10/10 3/11/11 7/12/12
usemtl wallSG1
f 7/13/13 11/14/14 12/15/15 8/16/16
